# FreeCAD v2024.1 build0 Arch module
# https://www.freecad.org
mtllib Unnamed-andimoto7583_keyboardRiser.mtl
o andimoto7583_keyboardRiser
usemtl color_727980
v -1.0 0.0 -3.27273
v -1.0 0.0 0.0
v -1.0 90.0 -18.0
v -1.0 90.0 0.0
v -0.978148 -0.207911 -3.27273
v -0.978148 -0.207911 0.0
v -0.978148 89.792099 -18.0
v -0.978148 90.207901 -18.0
v -0.978148 90.207901 0.0
v -0.913545 -0.406736 -3.27273
v -0.913545 -0.406736 0.0
v -0.913545 89.5933 -18.0
v -0.913545 90.4067 -18.0
v -0.913545 90.4067 0.0
v -0.809016 -0.587785 -3.27273
v -0.809016 -0.587785 0.0
v -0.809016 89.412201 -18.0
v -0.809016 90.587799 -18.0
v -0.809016 90.587799 0.0
v -0.66913 -0.743144 -3.27273
v -0.66913 -0.743144 0.0
v -0.66913 89.256897 -18.0
v -0.66913 90.743103 -18.0
v -0.66913 90.743103 0.0
v -0.5 -0.866025 -3.27273
v -0.5 -0.866025 0.0
v -0.5 89.134003 -18.0
v -0.5 90.865997 -18.0
v -0.5 90.865997 0.0
v -0.309016 -0.951056 -3.27273
v -0.309016 -0.951056 0.0
v -0.309016 89.048897 -18.0
v -0.309016 90.951103 -18.0
v -0.309016 90.951103 0.0
v -0.104528 -0.994521 -3.27273
v -0.104528 -0.994521 0.0
v -0.104528 89.005501 -18.0
v -0.104528 90.994499 -18.0
v -0.104528 90.994499 0.0
v 25.02 20.0 0.0
v 25.02 20.0 3.0
v 25.02 70.0 0.0
v 25.02 70.0 3.0
v 25.128799 18.9646 0.0
v 25.128799 18.9646 3.0
v 25.128799 21.0354 0.0
v 25.128799 21.0354 3.0
v 25.128799 68.9646 0.0
v 25.128799 68.9646 3.0
v 25.128799 71.0354 0.0
v 25.128799 71.0354 3.0
v 25.4505 17.974501 0.0
v 25.4505 17.974501 3.0
v 25.4505 22.025499 0.0
v 25.4505 22.025499 3.0
v 25.4505 67.974403 0.0
v 25.4505 67.974403 3.0
v 25.4505 72.025597 0.0
v 25.4505 72.025597 3.0
v 25.9711 17.0728 0.0
v 25.9711 17.0728 3.0
v 25.9711 22.9272 0.0
v 25.9711 22.9272 3.0
v 25.9711 67.0728 0.0
v 25.9711 67.0728 3.0
v 25.9711 72.9272 0.0
v 25.9711 72.9272 3.0
v 26.6677 16.299101 0.0
v 26.6677 16.299101 3.0
v 26.6677 23.700899 0.0
v 26.6677 23.700899 3.0
v 26.6677 66.299103 0.0
v 26.6677 66.299103 3.0
v 26.6677 73.700897 0.0
v 26.6677 73.700897 3.0
v 27.51 15.6872 0.0
v 27.51 15.6872 3.0
v 27.51 24.312799 0.0
v 27.51 24.312799 3.0
v 27.51 65.687202 0.0
v 27.51 65.687202 3.0
v 27.51 74.312798 0.0
v 27.51 74.312798 3.0
v 28.4611 15.2637 0.0
v 28.4611 15.2637 3.0
v 28.4611 24.7363 0.0
v 28.4611 24.7363 3.0
v 28.4611 65.263702 0.0
v 28.4611 65.263702 3.0
v 28.4611 74.736298 0.0
v 28.4611 74.736298 3.0
v 29.479401 15.0473 0.0
v 29.479401 15.0473 3.0
v 29.479401 24.9527 0.0
v 29.479401 24.9527 3.0
v 29.479401 65.047302 0.0
v 29.479401 65.047302 3.0
v 29.479401 74.952698 0.0
v 29.479401 74.952698 3.0
v 30.520599 15.0473 0.0
v 30.520599 15.0473 3.0
v 30.520599 24.9527 0.0
v 30.520599 24.9527 3.0
v 30.520599 65.047302 0.0
v 30.520599 65.047302 3.0
v 30.520599 74.952698 0.0
v 30.520599 74.952698 3.0
v 31.5389 15.2637 0.0
v 31.5389 15.2637 3.0
v 31.5389 24.7363 0.0
v 31.5389 24.7363 3.0
v 31.5389 65.263702 0.0
v 31.5389 65.263702 3.0
v 31.5389 74.736298 0.0
v 31.5389 74.736298 3.0
v 32.490002 15.6872 0.0
v 32.490002 15.6872 3.0
v 32.490002 24.312799 0.0
v 32.490002 24.312799 3.0
v 32.490002 65.687202 0.0
v 32.490002 65.687202 3.0
v 32.490002 74.312798 0.0
v 32.490002 74.312798 3.0
v 33.332298 16.299101 0.0
v 33.332298 16.299101 3.0
v 33.332298 23.700899 0.0
v 33.332298 23.700899 3.0
v 33.332298 66.299103 0.0
v 33.332298 66.299103 3.0
v 33.332298 73.700897 0.0
v 33.332298 73.700897 3.0
v 34.0289 17.0728 0.0
v 34.0289 17.0728 3.0
v 34.0289 22.9272 0.0
v 34.0289 22.9272 3.0
v 34.0289 67.0728 0.0
v 34.0289 67.0728 3.0
v 34.0289 72.9272 0.0
v 34.0289 72.9272 3.0
v 34.5495 17.974501 0.0
v 34.5495 17.974501 3.0
v 34.5495 22.025499 0.0
v 34.5495 22.025499 3.0
v 34.5495 67.974403 0.0
v 34.5495 67.974403 3.0
v 34.5495 72.025597 0.0
v 34.5495 72.025597 3.0
v 34.871201 18.9646 0.0
v 34.871201 18.9646 3.0
v 34.871201 21.0354 0.0
v 34.871201 21.0354 3.0
v 34.871201 68.9646 0.0
v 34.871201 68.9646 3.0
v 34.871201 71.0354 0.0
v 34.871201 71.0354 3.0
v 34.98 20.0 0.0
v 34.98 20.0 3.0
v 34.98 70.0 0.0
v 34.98 70.0 3.0
v 60.1045 -0.994521 -3.27273
v 60.1045 -0.994521 0.0
v 60.1045 89.005501 -18.0
v 60.1045 90.994499 -18.0
v 60.1045 90.994499 0.0
v 60.308998 -0.951056 -3.27273
v 60.308998 -0.951056 0.0
v 60.308998 89.048897 -18.0
v 60.308998 90.951103 -18.0
v 60.308998 90.951103 0.0
v 60.5 -0.866025 -3.27273
v 60.5 -0.866025 0.0
v 60.5 89.134003 -18.0
v 60.5 90.865997 -18.0
v 60.5 90.865997 0.0
v 60.669102 -0.743144 -3.27273
v 60.669102 -0.743144 0.0
v 60.669102 89.256897 -18.0
v 60.669102 90.743103 -18.0
v 60.669102 90.743103 0.0
v 60.808998 -0.587785 -3.27273
v 60.808998 -0.587785 0.0
v 60.808998 89.412201 -18.0
v 60.808998 90.587799 -18.0
v 60.808998 90.587799 0.0
v 60.913502 -0.406736 -3.27273
v 60.913502 -0.406736 0.0
v 60.913502 89.5933 -18.0
v 60.913502 90.4067 -18.0
v 60.913502 90.4067 0.0
v 60.9781 -0.207911 -3.27273
v 60.9781 -0.207911 0.0
v 60.9781 89.792099 -18.0
v 60.9781 90.207901 -18.0
v 60.9781 90.207901 0.0
v 61.0 0.0 -3.27273
v 61.0 0.0 0.0
v 61.0 90.0 -18.0
v 61.0 90.0 0.0
vn 0.994524 -0.104504 0.0
vn 0.994524 -0.104504 0.0
vn -0.207869 -0.978157 0.0
vn -0.207869 -0.978157 -0.0
vn 0.207869 0.978157 -0.0
vn 0.207869 0.978157 0.0
vn 0.587745 -0.809046 0.0
vn 0.587745 -0.809046 0.0
vn -0.866001 -0.500042 0.0
vn -0.866001 -0.500042 0.0
vn -0.951066 -0.308988 0.0
vn -0.951066 -0.308988 0.0
vn -0.587743 -0.809048 0.0
vn -0.587743 -0.809048 -0.0
vn 0.951066 0.308988 0.0
vn 0.951066 0.308988 0.0
vn 0.866001 -0.500042 0.0
vn 0.866001 -0.500042 0.0
vn 0.951066 -0.308988 0.0
vn 0.951066 -0.308988 0.0
vn 0.743163 -0.66911 0.0
vn 0.743163 -0.66911 0.0
vn 0.207869 -0.978157 0.0
vn 0.207869 -0.978157 0.0
vn 0.0 -1.0 0.0
vn 0.0 -1.0 -0.0
vn 0.406771 -0.91353 0.0
vn 0.406771 -0.91353 0.0
vn 0.0 0.0 1.0
vn 0.0 0.0 1.0
vn -0.0 0.0 1.0
vn 0.0 0.0 1.0
vn -0.0 0.0 1.0
vn 0.0 0.0 1.0
vn -0.0 0.0 1.0
vn 0.0 0.0 1.0
vn -0.0 0.0 1.0
vn 0.0 0.0 1.0
vn -0.0 0.0 1.0
vn 0.0 0.0 1.0
vn -0.0 0.0 1.0
vn 0.0 0.0 1.0
vn -0.0 0.0 1.0
vn 0.0 0.0 1.0
vn 0.0 0.0 1.0
vn 0.0 0.0 1.0
vn 0.0 0.0 1.0
vn 0.0 0.0 1.0
vn 0.0 0.0 1.0
vn 0.0 0.0 1.0
vn 0.0 0.0 1.0
vn 0.0 0.0 1.0
vn 0.0 0.0 1.0
vn 0.0 0.0 1.0
vn 0.0 0.0 1.0
vn 0.0 0.0 1.0
vn 0.0 0.0 1.0
vn 0.0 0.0 1.0
vn 0.0 0.0 1.0
vn 0.0 0.0 1.0
vn 0.0 0.0 1.0
vn 0.0 0.0 1.0
vn 0.0 0.0 1.0
vn -0.0 0.0 1.0
vn 0.0 0.0 1.0
vn -0.0 0.0 1.0
vn 0.0 0.0 1.0
vn 0.0 -0.0 1.0
vn 0.0 0.0 1.0
vn 0.0 0.0 1.0
vn 0.0 0.0 1.0
vn 0.0 0.0 1.0
vn 0.0 0.0 1.0
vn 0.0 0.0 1.0
vn 0.0 0.0 1.0
vn 0.0 0.0 1.0
vn 0.0 0.0 1.0
vn 0.0 0.0 1.0
vn 0.0 0.0 1.0
vn 0.0 0.0 1.0
vn 0.0 0.0 1.0
vn -0.0 0.0 1.0
vn 0.0 0.0 1.0
vn 0.0 0.0 1.0
vn 0.0 0.0 1.0
vn -0.0 0.0 1.0
vn 0.0 0.0 1.0
vn 0.0 0.0 1.0
vn 0.0 0.0 1.0
vn 0.0 0.0 1.0
vn 0.0 0.0 1.0
vn 0.0 0.0 1.0
vn 0.0 0.0 1.0
vn -0.0 0.0 1.0
vn -0.0 0.0 1.0
vn -0.0 0.0 1.0
vn -0.0 0.0 1.0
vn -0.0 0.0 1.0
vn -0.0 0.0 1.0
vn 0.0 0.0 1.0
vn 0.0 0.0 1.0
vn 0.0 0.0 1.0
vn 0.0 0.0 1.0
vn 0.0 0.0 1.0
vn 0.0 0.0 1.0
vn 0.0 0.0 1.0
vn 0.0 0.0 1.0
vn 0.0 0.0 1.0
vn 0.0 0.0 1.0
vn 0.0 0.0 1.0
vn 0.0 0.0 1.0
vn 0.0 0.0 1.0
vn 0.0 0.0 1.0
vn 0.0 0.0 1.0
vn 0.0 0.0 1.0
vn 0.0 0.0 1.0
vn 0.0 0.0 1.0
vn 0.0 0.0 1.0
vn 0.0 0.0 1.0
vn 0.0 0.0 1.0
vn 0.0 0.0 1.0
vn 0.0 0.0 1.0
vn -0.994524 -0.104504 0.0
vn -0.994524 -0.104504 0.0
vn 0.0 0.0 1.0
vn 0.0 0.0 1.0
vn 0.0 0.0 1.0
vn 0.0 0.0 1.0
vn 0.0 0.0 1.0
vn 0.0 0.0 1.0
vn 0.0 0.0 1.0
vn 0.0 0.0 1.0
vn 0.0 0.0 1.0
vn 0.0 0.0 1.0
vn 0.0 0.0 1.0
vn 0.0 0.0 1.0
vn 0.0 0.0 1.0
vn -0.0 0.0 1.0
vn 0.0 0.0 1.0
vn -0.0 0.0 1.0
vn 0.0 0.0 1.0
vn -0.0 0.0 1.0
vn 0.0 0.0 1.0
vn -0.0 0.0 1.0
vn 0.0 0.0 1.0
vn -0.0 0.0 1.0
vn 0.0 0.0 1.0
vn -0.0 0.0 1.0
vn 0.0 0.0 1.0
vn -0.0 0.0 1.0
vn 0.0 0.0 1.0
vn 0.0 -0.0 1.0
vn -0.743164 -0.669109 0.0
vn -0.743164 -0.669109 0.0
vn -0.406771 -0.91353 0.0
vn -0.406771 -0.91353 -0.0
vn 0.994524 0.104504 0.0
vn 0.994524 0.104504 0.0
vn -0.994524 0.104504 0.0
vn -0.994524 0.104504 0.0
vn -0.406771 0.91353 0.0
vn -0.406771 0.91353 0.0
vn -0.743164 0.669109 0.0
vn -0.743164 0.669109 0.0
vn 0.743163 0.66911 0.0
vn 0.743163 0.66911 0.0
vn 0.0 1.0 -0.0
vn 0.0 1.0 0.0
vn -0.207869 0.978157 0.0
vn -0.207869 0.978157 0.0
vn -0.587743 0.809048 0.0
vn -0.587743 0.809048 0.0
vn -0.866001 0.500042 0.0
vn -0.866001 0.500042 0.0
vn -0.951066 0.308988 0.0
vn -0.951066 0.308988 0.0
vn 0.587745 0.809046 -0.0
vn 0.587745 0.809046 0.0
vn 0.406771 0.91353 -0.0
vn 0.406771 0.91353 0.0
vn 0.866001 0.500042 0.0
vn 0.866001 0.500042 0.0
vn 0.994524 -0.104504 0.0
vn 0.994524 -0.104504 0.0
vn -0.207868 -0.978157 0.0
vn -0.207868 -0.978157 -0.0
vn 0.207869 0.978157 -0.0
vn 0.207869 0.978157 0.0
vn 0.587746 -0.809046 0.0
vn 0.587746 -0.809046 0.0
vn -0.866025 -0.500001 0.0
vn -0.866025 -0.500001 0.0
vn -0.951057 -0.309016 0.0
vn -0.951057 -0.309016 0.0
vn -0.587744 -0.809047 0.0
vn -0.587744 -0.809047 -0.0
vn 0.951057 0.309016 0.0
vn 0.951057 0.309016 0.0
vn 0.866025 -0.500001 0.0
vn 0.866025 -0.500001 0.0
vn 0.951057 -0.309016 0.0
vn 0.951057 -0.309016 0.0
vn 0.743164 -0.66911 0.0
vn 0.743164 -0.66911 0.0
vn 0.207868 -0.978157 0.0
vn 0.207868 -0.978157 0.0
vn 0.0 -1.0 0.0
vn 0.0 -1.0 -0.0
vn 0.406771 -0.91353 0.0
vn 0.406771 -0.91353 0.0
vn -0.994524 -0.104504 0.0
vn -0.994524 -0.104504 0.0
vn 0.0 0.0 1.0
vn 0.0 0.0 1.0
vn 0.0 0.0 1.0
vn 0.0 0.0 1.0
vn 0.0 0.0 1.0
vn 0.0 0.0 1.0
vn 0.0 0.0 1.0
vn 0.0 0.0 1.0
vn 0.0 0.0 1.0
vn 0.0 0.0 1.0
vn 0.0 0.0 1.0
vn 0.0 0.0 1.0
vn 0.0 0.0 1.0
vn -0.0 0.0 1.0
vn 0.0 0.0 1.0
vn -0.0 0.0 1.0
vn 0.0 0.0 1.0
vn -0.0 0.0 1.0
vn 0.0 0.0 1.0
vn -0.0 0.0 1.0
vn 0.0 0.0 1.0
vn -0.0 0.0 1.0
vn 0.0 0.0 1.0
vn -0.0 0.0 1.0
vn 0.0 0.0 1.0
vn -0.0 0.0 1.0
vn 0.0 0.0 1.0
vn 0.0 -0.0 1.0
vn -0.743165 -0.669109 0.0
vn -0.743165 -0.669109 0.0
vn -0.406771 -0.91353 0.0
vn -0.406771 -0.91353 -0.0
vn 0.994524 0.104504 0.0
vn 0.994524 0.104504 0.0
vn -0.994524 0.104504 0.0
vn -0.994524 0.104504 0.0
vn -0.743165 0.669109 0.0
vn -0.743165 0.669109 0.0
vn -0.587743 0.809048 0.0
vn -0.587743 0.809048 0.0
vn -0.951057 0.309016 0.0
vn -0.951057 0.309016 0.0
vn 0.743164 0.66911 0.0
vn 0.743164 0.66911 0.0
vn 0.0 1.0 -0.0
vn 0.0 1.0 0.0
vn -0.866025 0.500001 0.0
vn -0.866025 0.500001 0.0
vn 0.587745 0.809046 -0.0
vn 0.587745 0.809046 0.0
vn 0.406771 0.91353 -0.0
vn 0.406771 0.91353 0.0
vn 0.866025 0.500001 0.0
vn 0.866025 0.500001 0.0
vn -0.207869 0.978157 0.0
vn -0.207869 0.978157 0.0
vn -0.406771 0.91353 0.0
vn -0.406771 0.91353 0.0
vn 0.0 1.0 -0.0
vn 0.0 1.0 0.0
vn -0.207595 0.978215 0.0
vn -0.207595 0.978215 0.0
vn 0.034298 -0.161394 -0.986294
vn 0.034245 -0.161394 -0.986296
vn 0.0 -0.161489 -0.986875
vn -0.0 -0.161489 -0.986875
vn 0.407002 0.913427 -0.0
vn 0.407002 0.913427 0.0
vn -0.176534 -0.158952 -0.971375
vn -0.176474 -0.158954 -0.971386
vn -0.994521 0.104532 0.0
vn -0.994521 0.104532 0.0
vn 1.0 0.0 0.0
vn 1.0 0.0 0.0
vn 0.0 -1.0 0.0
vn 0.0 -1.0 -0.0
vn 0.837567 -0.088227 -0.539163
vn 0.837577 -0.088224 -0.539148
vn 0.207585 0.978217 -0.0
vn 0.207585 0.978217 0.0
vn 0.951062 -0.308999 0.0
vn 0.951062 -0.308999 0.0
vn 0.866077 -0.49991 0.0
vn 0.866077 -0.49991 0.0
vn 0.445102 -0.14461 -0.883726
vn 0.445058 -0.144613 -0.883748
vn 0.207901 -0.97815 0.0
vn 0.207901 -0.97815 0.0
vn 0.0 0.0 -1.0
vn 0.0 0.0 -1.0
vn 0.0 0.0 -1.0
vn 0.0 0.0 -1.0
vn 0.0 0.0 -1.0
vn 0.0 0.0 -1.0
vn 0.0 0.0 -1.0
vn 0.0 0.0 -1.0
vn 0.0 0.0 -1.0
vn 0.0 0.0 -1.0
vn 0.0 0.0 -1.0
vn 0.0 0.0 -1.0
vn 0.0 0.0 -1.0
vn 0.0 0.0 -1.0
vn 0.0 0.0 -1.0
vn 0.0 0.0 -1.0
vn 0.0 0.0 -1.0
vn 0.0 0.0 -1.0
vn 0.0 0.0 -1.0
vn 0.0 0.0 -1.0
vn 0.0 0.0 -1.0
vn 0.0 0.0 -1.0
vn 0.0 0.0 -1.0
vn 0.0 0.0 -1.0
vn 0.0 0.0 -1.0
vn 0.0 0.0 -1.0
vn 0.0 0.0 -1.0
vn 0.0 -0.0 -1.0
vn -0.743145 -0.669131 0.0
vn -0.743145 -0.669131 0.0
vn -1.0 0.0 0.0
vn -1.0 -0.0 0.0
vn -0.407033 0.913413 0.0
vn -0.407033 0.913413 0.0
vn -0.587829 0.808985 0.0
vn -0.587829 0.808985 0.0
vn 0.994497 0.10476 0.0
vn 0.994497 0.10476 0.0
vn 0.26943 -0.155517 -0.95038
vn 0.269498 -0.155514 -0.950361
vn 0.071703 -0.161073 -0.984334
vn 0.071765 -0.161072 -0.98433
vn 0.994498 -0.104755 0.0
vn 0.994498 -0.104755 0.0
vn -0.994522 -0.104527 0.0
vn -0.994522 -0.104527 0.0
vn -0.838111 -0.088092 -0.53834
vn -0.838123 -0.088089 -0.538322
vn -0.11653 -0.160388 -0.980151
vn -0.116542 -0.160388 -0.98015
vn -0.743027 0.669262 0.0
vn -0.743027 0.669262 0.0
vn 0.587894 0.808938 -0.0
vn 0.587894 0.808938 0.0
vn 0.176518 -0.158953 -0.971378
vn 0.176463 -0.158954 -0.971388
vn -0.587788 -0.809015 0.0
vn -0.587788 -0.809015 -0.0
vn 0.587852 -0.808968 0.0
vn 0.587852 -0.808968 0.0
vn 0.406703 -0.913561 0.0
vn 0.406703 -0.913561 0.0
vn -0.866084 0.499898 0.0
vn -0.866084 0.499898 0.0
vn -0.269367 -0.15552 -0.950397
vn -0.269436 -0.155516 -0.950378
vn -0.034305 -0.161393 -0.986294
vn -0.034251 -0.161394 -0.986296
vn -0.951055 -0.309021 0.0
vn -0.951055 -0.309021 0.0
vn -0.866025 -0.500001 0.0
vn -0.866025 -0.500001 0.0
vn -0.445066 -0.144613 -0.883744
vn -0.44502 -0.144616 -0.883767
vn 0.866137 0.499807 0.0
vn 0.866137 0.499807 0.0
vn 0.743002 0.669289 0.0
vn 0.743002 0.669289 0.0
vn 0.95105 0.309036 0.0
vn 0.95105 0.309036 0.0
vn 0.116548 -0.160388 -0.980149
vn 0.116556 -0.160388 -0.980148
vn 0.74312 -0.669158 0.0
vn 0.74312 -0.669158 0.0
vn -0.951044 0.309057 0.0
vn -0.951044 0.309057 0.0
vn -0.071714 -0.161073 -0.984334
vn -0.071777 -0.161072 -0.984329
vn -0.406735 -0.913546 0.0
vn -0.406735 -0.913546 -0.0
vn -0.207911 -0.978148 0.0
vn -0.207911 -0.978148 -0.0
f 153//1 158//1 159//1 
f 158//2 153//2 152//2 
f 88//3 97//3 89//3 
f 97//4 88//4 96//4 
f 114//5 107//5 115//5 
f 107//6 114//6 106//6 
f 120//7 129//7 121//7 
f 129//8 120//8 128//8 
f 64//9 57//9 56//9 
f 57//10 64//10 65//10 
f 56//11 49//11 48//11 
f 49//12 56//12 57//12 
f 72//13 81//13 73//13 
f 81//14 72//14 80//14 
f 155//15 146//15 147//15 
f 146//16 155//16 154//16 
f 137//17 144//17 145//17 
f 144//18 137//18 136//18 
f 145//19 152//19 153//19 
f 152//20 145//20 144//20 
f 129//21 136//21 137//21 
f 136//22 129//22 128//22 
f 104//23 113//23 105//23 
f 113//24 104//24 112//24 
f 96//25 105//25 97//25 
f 105//26 96//26 104//26 
f 112//27 121//27 113//27 
f 121//28 112//28 120//28 
f 198//29 144//29 196//29 
f 196//30 150//30 156//30 
f 142//31 196//31 144//31 
f 196//32 142//32 150//32 
f 136//33 142//33 144//33 
f 136//34 134//34 142//34 
f 128//35 134//35 136//35 
f 128//36 126//36 134//36 
f 120//37 126//37 128//37 
f 120//38 118//38 126//38 
f 112//39 118//39 120//39 
f 112//40 110//40 118//40 
f 104//41 110//41 112//41 
f 104//42 102//42 110//42 
f 96//43 102//43 104//43 
f 96//44 94//44 102//44 
f 88//45 94//45 96//45 
f 88//46 86//46 94//46 
f 80//47 86//47 88//47 
f 80//48 78//48 86//48 
f 72//49 78//49 80//49 
f 72//50 70//50 78//50 
f 64//51 70//51 72//51 
f 64//52 62//52 70//52 
f 56//53 62//53 64//53 
f 56//54 54//54 62//54 
f 4//55 56//55 48//55 
f 56//56 4//56 54//56 
f 4//57 48//57 42//57 
f 2//58 54//58 4//58 
f 164//59 198//59 194//59 
f 152//60 198//60 158//60 
f 164//61 194//61 189//61 
f 144//62 198//62 152//62 
f 164//63 189//63 184//63 
f 148//64 196//64 156//64 
f 164//65 184//65 179//65 
f 140//66 196//66 148//66 
f 164//67 179//67 174//67 
f 161//68 196//68 140//68 
f 164//69 174//69 169//69 
f 196//70 161//70 191//70 
f 198//71 164//71 146//71 
f 186//72 161//72 181//72 
f 176//73 161//73 171//73 
f 198//74 154//74 158//74 
f 198//75 146//75 154//75 
f 164//76 138//76 146//76 
f 164//77 130//77 138//77 
f 164//78 122//78 130//78 
f 164//79 114//79 122//79 
f 164//80 106//80 114//80 
f 164//81 98//81 106//81 
f 39//82 98//82 164//82 
f 98//83 39//83 90//83 
f 50//84 4//84 42//84 
f 58//85 4//85 50//85 
f 4//86 58//86 39//86 
f 66//87 39//87 58//87 
f 74//88 39//88 66//88 
f 82//89 39//89 74//89 
f 90//90 39//90 82//90 
f 171//91 161//91 166//91 
f 181//92 161//92 176//92 
f 191//93 161//93 186//93 
f 132//94 161//94 140//94 
f 124//95 161//95 132//95 
f 116//96 161//96 124//96 
f 108//97 161//97 116//97 
f 100//98 161//98 108//98 
f 92//99 161//99 100//99 
f 36//100 92//100 84//100 
f 36//101 84//101 76//101 
f 54//102 2//102 46//102 
f 46//103 2//103 40//103 
f 92//104 36//104 161//104 
f 68//105 36//105 76//105 
f 60//106 36//106 68//106 
f 52//107 36//107 60//107 
f 40//108 2//108 44//108 
f 4//109 39//109 34//109 
f 44//110 2//110 52//110 
f 4//111 34//111 29//111 
f 52//112 2//112 36//112 
f 4//113 29//113 24//113 
f 36//114 2//114 31//114 
f 4//115 24//115 19//115 
f 31//116 2//116 26//116 
f 4//117 19//117 14//117 
f 26//118 2//118 21//118 
f 4//119 14//119 9//119 
f 21//120 2//120 16//120 
f 16//121 2//121 11//121 
f 11//122 2//122 6//122 
f 48//123 43//123 42//123 
f 43//124 48//124 49//124 
f 155//125 153//125 159//125 
f 147//126 153//126 155//126 
f 147//127 145//127 153//127 
f 139//128 145//128 147//128 
f 139//129 137//129 145//129 
f 131//130 137//130 139//130 
f 131//131 129//131 137//131 
f 123//132 129//132 131//132 
f 123//133 121//133 129//133 
f 115//134 121//134 123//134 
f 115//135 113//135 121//135 
f 107//136 113//136 115//136 
f 107//137 105//137 113//137 
f 99//138 105//138 107//138 
f 99//139 97//139 105//139 
f 91//140 97//140 99//140 
f 91//141 89//141 97//141 
f 83//142 89//142 91//142 
f 83//143 81//143 89//143 
f 75//144 81//144 83//144 
f 75//145 73//145 81//145 
f 67//146 73//146 75//146 
f 67//147 65//147 73//147 
f 59//148 65//148 67//148 
f 59//149 57//149 65//149 
f 51//150 57//150 59//150 
f 51//151 49//151 57//151 
f 49//152 51//152 43//152 
f 72//153 65//153 64//153 
f 65//154 72//154 73//154 
f 80//155 89//155 81//155 
f 89//156 80//156 88//156 
f 159//157 154//157 155//157 
f 154//158 159//158 158//158 
f 42//159 51//159 50//159 
f 51//160 42//160 43//160 
f 90//161 83//161 91//161 
f 83//162 90//162 82//162 
f 66//163 75//163 74//163 
f 75//164 66//164 67//164 
f 139//165 130//165 131//165 
f 130//166 139//166 138//166 
f 106//167 99//167 107//167 
f 99//168 106//168 98//168 
f 98//169 91//169 99//169 
f 91//170 98//170 90//170 
f 82//171 75//171 83//171 
f 75//172 82//172 74//172 
f 58//173 67//173 66//173 
f 67//174 58//174 59//174 
f 50//175 59//175 58//175 
f 59//176 50//176 51//176 
f 130//177 123//177 131//177 
f 123//178 130//178 122//178 
f 122//179 115//179 123//179 
f 115//180 122//180 114//180 
f 147//181 138//181 139//181 
f 138//182 147//182 146//182 
f 149//183 156//183 157//183 
f 156//184 149//184 148//184 
f 84//185 93//185 85//185 
f 93//186 84//186 92//186 
f 110//187 103//187 111//187 
f 103//188 110//188 102//188 
f 116//189 125//189 117//189 
f 125//190 116//190 124//190 
f 60//191 53//191 52//191 
f 53//192 60//192 61//192 
f 52//193 45//193 44//193 
f 45//194 52//194 53//194 
f 68//195 77//195 69//195 
f 77//196 68//196 76//196 
f 151//197 142//197 143//197 
f 142//198 151//198 150//198 
f 133//199 140//199 141//199 
f 140//200 133//200 132//200 
f 141//201 148//201 149//201 
f 148//202 141//202 140//202 
f 125//203 132//203 133//203 
f 132//204 125//204 124//204 
f 100//205 109//205 101//205 
f 109//206 100//206 108//206 
f 92//207 101//207 93//207 
f 101//208 92//208 100//208 
f 108//209 117//209 109//209 
f 117//210 108//210 116//210 
f 44//211 41//211 40//211 
f 41//212 44//212 45//212 
f 151//213 149//213 157//213 
f 143//214 149//214 151//214 
f 143//215 141//215 149//215 
f 135//216 141//216 143//216 
f 135//217 133//217 141//217 
f 127//218 133//218 135//218 
f 127//219 125//219 133//219 
f 119//220 125//220 127//220 
f 119//221 117//221 125//221 
f 111//222 117//222 119//222 
f 111//223 109//223 117//223 
f 103//224 109//224 111//224 
f 103//225 101//225 109//225 
f 95//226 101//226 103//226 
f 95//227 93//227 101//227 
f 87//228 93//228 95//228 
f 87//229 85//229 93//229 
f 79//230 85//230 87//230 
f 79//231 77//231 85//231 
f 71//232 77//232 79//232 
f 71//233 69//233 77//233 
f 63//234 69//234 71//234 
f 63//235 61//235 69//235 
f 55//236 61//236 63//236 
f 55//237 53//237 61//237 
f 47//238 53//238 55//238 
f 47//239 45//239 53//239 
f 45//240 47//240 41//240 
f 68//241 61//241 60//241 
f 61//242 68//242 69//242 
f 76//243 85//243 77//243 
f 85//244 76//244 84//244 
f 157//245 150//245 151//245 
f 150//246 157//246 156//246 
f 40//247 47//247 46//247 
f 47//248 40//248 41//248 
f 62//249 71//249 70//249 
f 71//250 62//250 63//250 
f 78//251 71//251 79//251 
f 71//252 78//252 70//252 
f 46//253 55//253 54//253 
f 55//254 46//254 47//254 
f 135//255 126//255 127//255 
f 126//256 135//256 134//256 
f 102//257 95//257 103//257 
f 95//258 102//258 94//258 
f 54//259 63//259 62//259 
f 63//260 54//260 55//260 
f 126//261 119//261 127//261 
f 119//262 126//262 118//262 
f 118//263 111//263 119//263 
f 111//264 118//264 110//264 
f 143//265 134//265 135//265 
f 134//266 143//266 142//266 
f 94//267 87//267 95//267 
f 87//268 94//268 86//268 
f 86//269 79//269 87//269 
f 79//270 86//270 78//270 
f 163//271 39//271 164//271 
f 39//272 163//272 38//272 
f 38//273 34//273 39//273 
f 34//274 38//274 33//274 
f 162//275 165//275 160//275 
f 165//276 162//276 167//276 
f 35//277 162//277 160//277 
f 162//278 35//278 37//278 
f 173//279 169//279 174//279 
f 169//280 173//280 168//280 
f 15//281 22//281 20//281 
f 22//282 15//282 17//282 
f 3//283 9//283 8//283 
f 9//284 3//284 4//284 
f 195//285 198//285 196//285 
f 198//286 195//286 197//286 
f 35//287 161//287 36//287 
f 161//288 35//288 160//288 
f 195//289 192//289 197//289 
f 192//290 195//290 190//290 
f 168//291 164//291 169//291 
f 164//292 168//292 163//292 
f 186//293 190//293 191//293 
f 190//294 186//294 185//294 
f 181//295 185//295 186//295 
f 185//296 181//296 180//296 
f 187//297 190//297 185//297 
f 190//298 187//298 192//298 
f 160//299 166//299 161//299 
f 166//300 160//300 165//300 
f 192//301 193//301 197//301 
f 187//302 193//302 192//302 
f 187//303 188//303 193//303 
f 182//304 188//304 187//304 
f 182//305 183//305 188//305 
f 177//306 183//306 182//306 
f 177//307 178//307 183//307 
f 172//308 178//308 177//308 
f 172//309 173//309 178//309 
f 167//310 173//310 172//310 
f 167//311 168//311 173//311 
f 162//312 168//312 167//312 
f 162//313 163//313 168//313 
f 37//314 163//314 162//314 
f 37//315 38//315 163//315 
f 32//316 38//316 37//316 
f 32//317 33//317 38//317 
f 27//318 33//318 32//318 
f 27//319 28//319 33//319 
f 22//320 28//320 27//320 
f 22//321 23//321 28//321 
f 17//322 23//322 22//322 
f 17//323 18//323 23//323 
f 12//324 18//324 17//324 
f 12//325 13//325 18//325 
f 7//326 13//326 12//326 
f 7//327 8//327 13//327 
f 8//328 7//328 3//328 
f 20//329 16//329 15//329 
f 16//330 20//330 21//330 
f 1//331 4//331 3//331 
f 4//332 1//332 2//332 
f 33//333 29//333 34//333 
f 29//334 33//334 28//334 
f 28//335 24//335 29//335 
f 24//336 28//336 23//336 
f 198//337 193//337 194//337 
f 193//338 198//338 197//338 
f 182//339 185//339 180//339 
f 185//340 182//340 187//340 
f 167//341 170//341 165//341 
f 170//342 167//342 172//342 
f 191//343 195//343 196//343 
f 195//344 191//344 190//344 
f 5//345 2//345 1//345 
f 2//346 5//346 6//346 
f 7//347 1//347 3//347 
f 1//348 7//348 5//348 
f 20//349 27//349 25//349 
f 27//350 20//350 22//350 
f 18//351 24//351 23//351 
f 24//352 18//352 19//352 
f 178//353 174//353 179//353 
f 174//354 178//354 173//354 
f 177//355 180//355 175//355 
f 180//356 177//356 182//356 
f 20//357 26//357 21//357 
f 26//358 20//358 25//358 
f 170//359 176//359 171//359 
f 176//360 170//360 175//360 
f 165//361 171//361 166//361 
f 171//362 165//362 170//362 
f 13//363 19//363 18//363 
f 19//364 13//364 14//364 
f 10//365 17//365 15//365 
f 17//366 10//366 12//366 
f 30//367 37//367 35//367 
f 37//368 30//368 32//368 
f 10//369 6//369 5//369 
f 6//370 10//370 11//370 
f 15//371 11//371 10//371 
f 11//372 15//372 16//372 
f 5//373 12//373 10//373 
f 12//374 5//374 7//374 
f 189//375 183//375 184//375 
f 183//376 189//376 188//376 
f 184//377 178//377 179//377 
f 178//378 184//378 183//378 
f 194//379 188//379 189//379 
f 188//380 194//380 193//380 
f 172//381 175//381 170//381 
f 175//382 172//382 177//382 
f 176//383 180//383 181//383 
f 180//384 176//384 175//384 
f 8//385 14//385 13//385 
f 14//386 8//386 9//386 
f 25//387 32//387 30//387 
f 32//388 25//388 27//388 
f 25//389 31//389 26//389 
f 31//390 25//390 30//390 
f 30//391 36//391 31//391 
f 36//392 30//392 35//392 
